<mxfile host="app.diagrams.net" agent="Mozilla/5.0 (Windows NT 10.0; Win64; x64) AppleWebKit/537.36 (KHTML, like Gecko) Chrome/136.0.0.0 Safari/537.36" version="27.0.5">
  <diagram name="PÃ¡gina-1" id="8DHYoZ_lDJ5i3FkBO07u">
    <mxGraphModel dx="1665" dy="791" grid="1" gridSize="10" guides="1" tooltips="1" connect="1" arrows="1" fold="1" page="1" pageScale="1" pageWidth="827" pageHeight="1169" math="0" shadow="0">
      <root>
        <mxCell id="0" />
        <mxCell id="1" parent="0" />
        <mxCell id="qhKmJGiavXEHTZW5UAK7-27" value="&amp;lt;&amp;lt;depend&amp;gt;&amp;gt;" style="edgeStyle=orthogonalEdgeStyle;rounded=0;orthogonalLoop=1;jettySize=auto;html=1;" edge="1" parent="1" source="qhKmJGiavXEHTZW5UAK7-5">
          <mxGeometry relative="1" as="geometry">
            <mxPoint x="250" y="220" as="targetPoint" />
            <Array as="points">
              <mxPoint x="250" y="306" />
              <mxPoint x="251" y="306" />
            </Array>
          </mxGeometry>
        </mxCell>
        <mxCell id="qhKmJGiavXEHTZW5UAK7-30" value="&amp;lt;&amp;lt;depend&amp;gt;&amp;gt;" style="edgeStyle=orthogonalEdgeStyle;rounded=0;orthogonalLoop=1;jettySize=auto;html=1;" edge="1" parent="1" source="qhKmJGiavXEHTZW5UAK7-5">
          <mxGeometry relative="1" as="geometry">
            <mxPoint x="520" y="290" as="targetPoint" />
          </mxGeometry>
        </mxCell>
        <mxCell id="qhKmJGiavXEHTZW5UAK7-5" value="Pedido" style="swimlane;fontStyle=1;align=center;verticalAlign=top;childLayout=stackLayout;horizontal=1;startSize=26;horizontalStack=0;resizeParent=1;resizeParentMax=0;resizeLast=0;collapsible=1;marginBottom=0;whiteSpace=wrap;html=1;" vertex="1" parent="1">
          <mxGeometry x="40" y="390" width="320" height="210" as="geometry" />
        </mxCell>
        <mxCell id="qhKmJGiavXEHTZW5UAK7-6" value="id: int&lt;br&gt;itens: List&amp;lt;Pizza&amp;gt;&lt;br&gt;tipoEntrega: String(&quot;Tele-entrega&quot; ou &quot;Retirar no local&quot;)&lt;br&gt;formaPagamento: String (&quot;PIX&quot;, &quot;Dinheiro&quot;)&lt;br&gt;status: String" style="text;strokeColor=none;fillColor=none;align=left;verticalAlign=top;spacingLeft=4;spacingRight=4;overflow=hidden;rotatable=0;points=[[0,0.5],[1,0.5]];portConstraint=eastwest;whiteSpace=wrap;html=1;" vertex="1" parent="qhKmJGiavXEHTZW5UAK7-5">
          <mxGeometry y="26" width="320" height="114" as="geometry" />
        </mxCell>
        <mxCell id="qhKmJGiavXEHTZW5UAK7-7" value="" style="line;strokeWidth=1;fillColor=none;align=left;verticalAlign=middle;spacingTop=-1;spacingLeft=3;spacingRight=3;rotatable=0;labelPosition=right;points=[];portConstraint=eastwest;strokeColor=inherit;" vertex="1" parent="qhKmJGiavXEHTZW5UAK7-5">
          <mxGeometry y="140" width="320" height="8" as="geometry" />
        </mxCell>
        <mxCell id="qhKmJGiavXEHTZW5UAK7-8" value="ExibirDetalhes(): void&lt;br&gt;CriarPedido(): void&lt;div&gt;AtualizarStatus(): void&lt;/div&gt;" style="text;strokeColor=none;fillColor=none;align=left;verticalAlign=top;spacingLeft=4;spacingRight=4;overflow=hidden;rotatable=0;points=[[0,0.5],[1,0.5]];portConstraint=eastwest;whiteSpace=wrap;html=1;" vertex="1" parent="qhKmJGiavXEHTZW5UAK7-5">
          <mxGeometry y="148" width="320" height="62" as="geometry" />
        </mxCell>
        <mxCell id="qhKmJGiavXEHTZW5UAK7-9" value="Sabor" style="swimlane;fontStyle=1;align=center;verticalAlign=top;childLayout=stackLayout;horizontal=1;startSize=26;horizontalStack=0;resizeParent=1;resizeParentMax=0;resizeLast=0;collapsible=1;marginBottom=0;whiteSpace=wrap;html=1;" vertex="1" parent="1">
          <mxGeometry x="620" y="600" width="160" height="140" as="geometry" />
        </mxCell>
        <mxCell id="qhKmJGiavXEHTZW5UAK7-10" value="id: int&lt;br&gt;nome: String&lt;br&gt;ingredientes: List&amp;lt;String&amp;gt;" style="text;strokeColor=none;fillColor=none;align=left;verticalAlign=top;spacingLeft=4;spacingRight=4;overflow=hidden;rotatable=0;points=[[0,0.5],[1,0.5]];portConstraint=eastwest;whiteSpace=wrap;html=1;" vertex="1" parent="qhKmJGiavXEHTZW5UAK7-9">
          <mxGeometry y="26" width="160" height="64" as="geometry" />
        </mxCell>
        <mxCell id="qhKmJGiavXEHTZW5UAK7-11" value="" style="line;strokeWidth=1;fillColor=none;align=left;verticalAlign=middle;spacingTop=-1;spacingLeft=3;spacingRight=3;rotatable=0;labelPosition=right;points=[];portConstraint=eastwest;strokeColor=inherit;" vertex="1" parent="qhKmJGiavXEHTZW5UAK7-9">
          <mxGeometry y="90" width="160" height="8" as="geometry" />
        </mxCell>
        <mxCell id="qhKmJGiavXEHTZW5UAK7-12" value="getters(): void&lt;br&gt;setters(): void" style="text;strokeColor=none;fillColor=none;align=left;verticalAlign=top;spacingLeft=4;spacingRight=4;overflow=hidden;rotatable=0;points=[[0,0.5],[1,0.5]];portConstraint=eastwest;whiteSpace=wrap;html=1;" vertex="1" parent="qhKmJGiavXEHTZW5UAK7-9">
          <mxGeometry y="98" width="160" height="42" as="geometry" />
        </mxCell>
        <mxCell id="qhKmJGiavXEHTZW5UAK7-13" value="Pizza" style="swimlane;fontStyle=1;align=center;verticalAlign=top;childLayout=stackLayout;horizontal=1;startSize=26;horizontalStack=0;resizeParent=1;resizeParentMax=0;resizeLast=0;collapsible=1;marginBottom=0;whiteSpace=wrap;html=1;" vertex="1" parent="1">
          <mxGeometry x="600" y="310" width="160" height="150" as="geometry" />
        </mxCell>
        <mxCell id="qhKmJGiavXEHTZW5UAK7-14" value="id: int&lt;br&gt;tamanho: String&lt;br&gt;sabores: List&amp;lt;Sabor&amp;gt;&lt;br&gt;preco: float" style="text;strokeColor=none;fillColor=none;align=left;verticalAlign=top;spacingLeft=4;spacingRight=4;overflow=hidden;rotatable=0;points=[[0,0.5],[1,0.5]];portConstraint=eastwest;whiteSpace=wrap;html=1;" vertex="1" parent="qhKmJGiavXEHTZW5UAK7-13">
          <mxGeometry y="26" width="160" height="74" as="geometry" />
        </mxCell>
        <mxCell id="qhKmJGiavXEHTZW5UAK7-15" value="" style="line;strokeWidth=1;fillColor=none;align=left;verticalAlign=middle;spacingTop=-1;spacingLeft=3;spacingRight=3;rotatable=0;labelPosition=right;points=[];portConstraint=eastwest;strokeColor=inherit;" vertex="1" parent="qhKmJGiavXEHTZW5UAK7-13">
          <mxGeometry y="100" width="160" height="8" as="geometry" />
        </mxCell>
        <mxCell id="qhKmJGiavXEHTZW5UAK7-16" value="getters(): void&lt;br&gt;setters(): void" style="text;strokeColor=none;fillColor=none;align=left;verticalAlign=top;spacingLeft=4;spacingRight=4;overflow=hidden;rotatable=0;points=[[0,0.5],[1,0.5]];portConstraint=eastwest;whiteSpace=wrap;html=1;" vertex="1" parent="qhKmJGiavXEHTZW5UAK7-13">
          <mxGeometry y="108" width="160" height="42" as="geometry" />
        </mxCell>
        <mxCell id="qhKmJGiavXEHTZW5UAK7-17" value="Funcionario" style="swimlane;fontStyle=1;align=center;verticalAlign=top;childLayout=stackLayout;horizontal=1;startSize=26;horizontalStack=0;resizeParent=1;resizeParentMax=0;resizeLast=0;collapsible=1;marginBottom=0;whiteSpace=wrap;html=1;" vertex="1" parent="1">
          <mxGeometry x="400" y="150" width="240" height="140" as="geometry" />
        </mxCell>
        <mxCell id="qhKmJGiavXEHTZW5UAK7-18" value="id: int&lt;br&gt;nome: String&lt;br&gt;cargo: String(&quot;Atendente&quot; ou &quot;Pizzaiolo&quot;)" style="text;strokeColor=none;fillColor=none;align=left;verticalAlign=top;spacingLeft=4;spacingRight=4;overflow=hidden;rotatable=0;points=[[0,0.5],[1,0.5]];portConstraint=eastwest;whiteSpace=wrap;html=1;" vertex="1" parent="qhKmJGiavXEHTZW5UAK7-17">
          <mxGeometry y="26" width="240" height="64" as="geometry" />
        </mxCell>
        <mxCell id="qhKmJGiavXEHTZW5UAK7-19" value="" style="line;strokeWidth=1;fillColor=none;align=left;verticalAlign=middle;spacingTop=-1;spacingLeft=3;spacingRight=3;rotatable=0;labelPosition=right;points=[];portConstraint=eastwest;strokeColor=inherit;" vertex="1" parent="qhKmJGiavXEHTZW5UAK7-17">
          <mxGeometry y="90" width="240" height="8" as="geometry" />
        </mxCell>
        <mxCell id="qhKmJGiavXEHTZW5UAK7-20" value="getters(): void&lt;br&gt;setters(): void" style="text;strokeColor=none;fillColor=none;align=left;verticalAlign=top;spacingLeft=4;spacingRight=4;overflow=hidden;rotatable=0;points=[[0,0.5],[1,0.5]];portConstraint=eastwest;whiteSpace=wrap;html=1;" vertex="1" parent="qhKmJGiavXEHTZW5UAK7-17">
          <mxGeometry y="98" width="240" height="42" as="geometry" />
        </mxCell>
        <mxCell id="qhKmJGiavXEHTZW5UAK7-21" value="Cliente" style="swimlane;fontStyle=1;align=center;verticalAlign=top;childLayout=stackLayout;horizontal=1;startSize=26;horizontalStack=0;resizeParent=1;resizeParentMax=0;resizeLast=0;collapsible=1;marginBottom=0;whiteSpace=wrap;html=1;" vertex="1" parent="1">
          <mxGeometry x="210" y="60" width="160" height="156" as="geometry" />
        </mxCell>
        <mxCell id="qhKmJGiavXEHTZW5UAK7-22" value="id: int&amp;nbsp;&lt;br&gt;nome: String&lt;br&gt;endereco: String&lt;br&gt;telefone: String" style="text;strokeColor=none;fillColor=none;align=left;verticalAlign=top;spacingLeft=4;spacingRight=4;overflow=hidden;rotatable=0;points=[[0,0.5],[1,0.5]];portConstraint=eastwest;whiteSpace=wrap;html=1;" vertex="1" parent="qhKmJGiavXEHTZW5UAK7-21">
          <mxGeometry y="26" width="160" height="82" as="geometry" />
        </mxCell>
        <mxCell id="qhKmJGiavXEHTZW5UAK7-23" value="" style="line;strokeWidth=1;fillColor=none;align=left;verticalAlign=middle;spacingTop=-1;spacingLeft=3;spacingRight=3;rotatable=0;labelPosition=right;points=[];portConstraint=eastwest;strokeColor=inherit;" vertex="1" parent="qhKmJGiavXEHTZW5UAK7-21">
          <mxGeometry y="108" width="160" height="8" as="geometry" />
        </mxCell>
        <mxCell id="qhKmJGiavXEHTZW5UAK7-24" value="getters(): void&lt;br&gt;setters(): void" style="text;strokeColor=none;fillColor=none;align=left;verticalAlign=top;spacingLeft=4;spacingRight=4;overflow=hidden;rotatable=0;points=[[0,0.5],[1,0.5]];portConstraint=eastwest;whiteSpace=wrap;html=1;" vertex="1" parent="qhKmJGiavXEHTZW5UAK7-21">
          <mxGeometry y="116" width="160" height="40" as="geometry" />
        </mxCell>
        <mxCell id="qhKmJGiavXEHTZW5UAK7-33" value="" style="shape=waypoint;sketch=0;size=6;pointerEvents=1;points=[];fillColor=default;resizable=0;rotatable=0;perimeter=centerPerimeter;snapToPoint=1;verticalAlign=top;fontStyle=1;startSize=26;horizontal=1;" vertex="1" parent="1">
          <mxGeometry x="360" y="520" width="20" height="20" as="geometry" />
        </mxCell>
        <mxCell id="qhKmJGiavXEHTZW5UAK7-40" value="1" style="endArrow=open;html=1;endSize=12;startArrow=diamondThin;startSize=14;startFill=0;edgeStyle=orthogonalEdgeStyle;align=left;verticalAlign=bottom;rounded=0;exitX=0.8;exitY=0.1;exitDx=0;exitDy=0;exitPerimeter=0;" edge="1" parent="1" source="qhKmJGiavXEHTZW5UAK7-33">
          <mxGeometry x="-1" y="3" relative="1" as="geometry">
            <mxPoint x="330" y="410" as="sourcePoint" />
            <mxPoint x="681" y="472" as="targetPoint" />
            <Array as="points">
              <mxPoint x="681" y="530" />
            </Array>
          </mxGeometry>
        </mxCell>
        <mxCell id="qhKmJGiavXEHTZW5UAK7-41" value="1...*" style="edgeLabel;html=1;align=center;verticalAlign=middle;resizable=0;points=[];" vertex="1" connectable="0" parent="qhKmJGiavXEHTZW5UAK7-40">
          <mxGeometry x="1" relative="1" as="geometry">
            <mxPoint as="offset" />
          </mxGeometry>
        </mxCell>
        <mxCell id="qhKmJGiavXEHTZW5UAK7-42" value="1" style="endArrow=open;html=1;endSize=12;startArrow=diamondThin;startSize=14;startFill=1;edgeStyle=orthogonalEdgeStyle;align=left;verticalAlign=bottom;rounded=0;exitX=0.869;exitY=1;exitDx=0;exitDy=0;exitPerimeter=0;entryX=0.5;entryY=0;entryDx=0;entryDy=0;" edge="1" parent="1" source="qhKmJGiavXEHTZW5UAK7-16" target="qhKmJGiavXEHTZW5UAK7-9">
          <mxGeometry x="-1" y="3" relative="1" as="geometry">
            <mxPoint x="330" y="410" as="sourcePoint" />
            <mxPoint x="490" y="410" as="targetPoint" />
          </mxGeometry>
        </mxCell>
        <mxCell id="qhKmJGiavXEHTZW5UAK7-43" value="1...*" style="edgeLabel;html=1;align=center;verticalAlign=middle;resizable=0;points=[];" vertex="1" connectable="0" parent="qhKmJGiavXEHTZW5UAK7-42">
          <mxGeometry x="0.7654" y="2" relative="1" as="geometry">
            <mxPoint as="offset" />
          </mxGeometry>
        </mxCell>
      </root>
    </mxGraphModel>
  </diagram>
</mxfile>
